<mxfile host="app.diagrams.net" modified="2024-05-23T00:51:00.145Z" agent="Mozilla/5.0 (Windows NT 10.0; Win64; x64; rv:126.0) Gecko/20100101 Firefox/126.0" version="24.4.6" etag="gO3Fsv6LVM114QM2Jdmg" type="github">
  <diagram name="Page-1" id="PcCPZa-KDLG7vWSh28q7">
    <mxGraphModel>
      <root>
        <mxCell id="0" />
        <mxCell id="1" parent="0" />
      </root>
    </mxGraphModel>
  </diagram>
</mxfile>
